<?xml version="1.0" encoding="UTF-8"?>
<svg width="150" height="101.89" version="1.1" viewBox="0 0 150 101.89" xmlns="http://www.w3.org/2000/svg"><g transform="matrix(1.3333 0 0 -1.3333 -245.1 625.92)"><g transform="matrix(.38143 0 0 .38143 127.05 274.7)"><path d="m148.85 510.56h294.94v-200.34h-294.94z" fill="#fff"/><path d="m154.52 505.07h283.6v-189.07h-283.6z" fill="#254aa5"/><g transform="translate(290.28 463.87)"><path d="m0 0 5.984 4.367 5.985-4.367-2.278 7.062 6.079 4.368h-7.493l-2.293 7.148-2.293-7.156-7.488 8e-3 6.074-4.368z" fill="#fff200"/></g><g transform="translate(259.31 455.55)"><path d="m0 0 5.984 4.367 5.981-4.367-2.274 7.062 6.075 4.368h-7.493l-2.293 7.156-2.292-7.164-7.489 8e-3 6.074-4.368z" fill="#fff200"/></g><g transform="translate(242.64 451.43)"><path d="m0 0-2.293-7.164-7.488 8e-3 6.074-4.367-2.277-7.063 5.984 4.367 5.984-4.367-2.277 7.063 6.074 4.367h-7.488z" fill="#fff200"/></g><g transform="translate(234.32 406.28)"><path d="m0 0 5.98-4.367-2.273 7.062 6.074 4.367h-7.488l-2.293 7.157-2.293-7.172-7.492 0.015 6.078-4.367-2.277-7.062z" fill="#fff200"/></g><g transform="translate(244.93 382.32)"><path d="m0 0-2.293 7.156-2.293-7.164-7.488 8e-3 6.074-4.367-2.277-7.063 5.984 4.375 5.984-4.375-2.277 7.063 6.074 4.367z" fill="#fff200"/></g><g transform="translate(267.63 359.61)"><path d="m0 0-2.293 7.148-2.289-7.156-7.492 8e-3 6.074-4.367-2.273-7.063 5.984 4.368 5.98-4.368-2.273 7.063 6.074 4.367z" fill="#fff200"/></g><g transform="translate(298.56 351.39)"><path d="m0 0-2.293 7.156-2.289-7.164-7.492 8e-3 6.074-4.367-2.273-7.063 5.984 4.368 5.98-4.368-2.277 7.063 6.078 4.367z" fill="#fff200"/></g><g transform="translate(329.49 359.61)"><path d="m0 0-2.289 7.148-2.297-7.156-7.484 8e-3 6.07-4.367-2.273-7.063 5.984 4.368 5.984-4.368-2.281 7.063 6.078 4.367z" fill="#fff200"/></g><g transform="translate(352.2 382.32)"><path d="m0 0-2.297 7.156-2.297-7.164-7.484 8e-3 6.078-4.367-2.281-7.063 5.984 4.375 5.985-4.375-2.282 7.063 6.078 4.367z" fill="#fff200"/></g><g transform="translate(367.91 413.43)"><path d="m0 0h-7.492l-2.297 7.156-2.289-7.164-7.492 8e-3 6.078-4.367-2.274-7.063 5.977 4.375 5.984-4.375-2.273 7.063z" fill="#fff200"/></g><g transform="translate(343.92 432.93)"><path d="m0 0 5.984 4.367 5.985-4.367-2.281 7.062 6.078 4.36h-7.485l-2.297 7.156-2.296-7.164-7.485 8e-3 6.078-4.36z" fill="#fff200"/></g><g transform="translate(327.29 474.13)"><path d="m0 0-2.289-7.164-7.492 0.016 6.07-4.375-2.273-7.063 5.992 4.375 5.976-4.375-2.273 7.063 6.078 4.375h-7.5z" fill="#fff200"/></g></g></g></svg>
