<?xml version="1.0" encoding="UTF-8" standalone="no"?>
<!-- Created with Inkscape (http://www.inkscape.org/) -->

<svg
   version="1.1"
   id="svg1348"
   width="143.76286"
   height="184.81999"
   viewBox="0 0 143.76286 184.81999"
   sodipodi:docname="schloss.svg"
   inkscape:version="1.2.2 (b0a8486541, 2022-12-01)"
   xmlns:inkscape="http://www.inkscape.org/namespaces/inkscape"
   xmlns:sodipodi="http://sodipodi.sourceforge.net/DTD/sodipodi-0.dtd"
   xmlns="http://www.w3.org/2000/svg"
   xmlns:svg="http://www.w3.org/2000/svg">
  <defs
     id="defs1352">
    <clipPath
       clipPathUnits="userSpaceOnUse"
       id="clipPath1364">
      <path
         d="M 0,595.28 H 841.89 V 0 H 0 Z"
         id="path1362" />
    </clipPath>
  </defs>
  <sodipodi:namedview
     id="namedview1350"
     pagecolor="#ffffff"
     bordercolor="#000000"
     borderopacity="0.25"
     inkscape:showpageshadow="2"
     inkscape:pageopacity="0.0"
     inkscape:pagecheckerboard="0"
     inkscape:deskcolor="#d1d1d1"
     showgrid="false"
     inkscape:zoom="1.2939289"
     inkscape:cx="79.216098"
     inkscape:cy="120.56304"
     inkscape:window-width="3072"
     inkscape:window-height="1653"
     inkscape:window-x="0"
     inkscape:window-y="0"
     inkscape:window-maximized="1"
     inkscape:current-layer="g1356">
    <inkscape:page
       x="0"
       y="0"
       id="page1354"
       width="143.76286"
       height="184.81999" />
  </sodipodi:namedview>
  <g
     id="g1356"
     inkscape:groupmode="layer"
     inkscape:label="Page 1"
     transform="matrix(1.3333333,0,0,-1.3333333,-482.24765,517.53305)">
    <g
       id="g1358">
      <g
         id="g1360"
         clip-path="url(#clipPath1364)">
        <g
           id="g1366"
           transform="translate(415.6669,249.5348)">
          <path
             d="m 0,0 h -0.006 c -7.145,0.073 -13.927,0.994 -20.163,2.741 -6.603,1.851 -12.485,4.698 -17.482,8.463 -5.021,3.78 -9.043,8.68 -11.952,14.563 -2.681,5.412 -4.145,11.835 -4.355,19.086 -0.004,0.189 -0.011,2.657 -0.015,6.124 -0.004,1.837 -0.004,2.034 -0.008,2.169 -0.004,0.192 0.071,0.375 0.205,0.512 0.133,0.137 0.317,0.213 0.506,0.213 h 16.515 c 0.388,0 0.705,-0.311 0.713,-0.701 0.002,-0.12 0.004,-0.667 0.008,-2.198 0.005,-2.599 0.013,-5.816 0.024,-6.065 0.209,-4.598 1.246,-8.657 3.085,-12.064 2.075,-3.861 4.842,-7.084 8.232,-9.579 3.406,-2.508 7.431,-4.384 11.96,-5.575 4.028,-1.06 8.213,-1.659 12.444,-1.784 0.042,0.011 0.086,0.017 0.132,0.017 4.321,0.103 8.609,0.71 12.745,1.794 4.529,1.192 8.554,3.067 11.959,5.576 3.388,2.494 6.157,5.716 8.233,9.577 1.965,3.641 3.012,8.021 3.119,13.016 0.004,0.305 0.005,17.791 0.007,24.087 H -53.27 c -0.394,0 -0.711,0.319 -0.711,0.712 V 85.36 c 0,0.031 0,0.06 0.006,0.091 0.006,8.43 0.009,8.052 0.009,8.14 0.197,7.31 1.665,13.778 4.363,19.229 2.907,5.881 6.928,10.782 11.952,14.565 4.997,3.763 10.879,6.61 17.482,8.461 6.264,1.756 13.001,2.689 20.018,2.769 7.157,-0.071 13.941,-0.994 20.177,-2.742 6.6,-1.848 12.483,-4.696 17.48,-8.461 5.022,-3.78 9.043,-8.679 11.951,-14.564 1.613,-3.26 3.765,-10.039 3.765,-14.683 0,-0.382 -0.172,-0.738 -0.543,-0.823 L 35.794,96.953 c -0.193,-0.044 -0.341,0.337 -0.341,0.53 0,0.273 -0.032,0.411 -0.064,0.603 -0.499,2.821 -1.377,5.408 -2.609,7.687 -2.076,3.861 -4.843,7.084 -8.233,9.579 -3.405,2.509 -7.43,4.385 -11.959,5.574 -4.027,1.061 -8.212,1.66 -12.443,1.784 -0.044,-0.009 -0.086,-0.015 -0.132,-0.016 -4.322,-0.103 -8.611,-0.709 -12.746,-1.795 -4.529,-1.19 -8.554,-3.066 -11.96,-5.575 -3.388,-2.493 -6.157,-5.716 -8.232,-9.577 -1.858,-3.442 -2.895,-7.548 -3.092,-12.205 -0.006,-0.217 -0.012,-4.079 -0.014,-7.469 h 89.16 c 0.393,0 0.712,-0.319 0.712,-0.713 L 53.84,63.252 c 0,-8.072 0,-17.221 -0.004,-17.392 C 53.73,38.204 52.257,31.453 49.457,25.796 46.551,19.915 42.53,15.014 37.506,11.232 32.509,7.468 26.626,4.62 20.026,2.769 13.761,1.013 7.023,0.081 0.01,0 Z"
             style="fill:#005b79;fill-opacity:1;fill-rule:nonzero;stroke:none"
             id="path1368" />
        </g>
        <g
           id="g1370"
           transform="translate(419.3838,280.6302)">
          <path
             d="m 0,0 h -7.575 c -0.394,0 -0.711,0.318 -0.711,0.712 v 15.416 c -2.374,1.539 -3.777,4.093 -3.777,6.909 0,4.561 3.712,8.271 8.272,8.271 4.561,0 8.272,-3.71 8.272,-8.271 0,-2.771 -1.433,-5.378 -3.766,-6.903 V 0.712 C 0.715,0.318 0.394,0 0,0"
             style="fill:#ce492e;fill-opacity:1;fill-rule:nonzero;stroke:none"
             id="path1372" />
        </g>
      </g>
    </g>
  </g>
</svg>
